<?xml version="1.0" standalone="no"?><!DOCTYPE svg PUBLIC "-//W3C//DTD SVG 1.1//EN" "http://www.w3.org/Graphics/SVG/1.1/DTD/svg11.dtd"><svg t="1745113899967" class="icon" viewBox="0 0 1024 1024" version="1.1" xmlns="http://www.w3.org/2000/svg" p-id="2333" xmlns:xlink="http://www.w3.org/1999/xlink" width="200" height="200"><path d="M512 170.666667a42.666667 42.666667 0 0 0-42.666667 42.666666c0 72.192-87.296 108.373333-138.368 57.301334a42.666667 42.666667 0 1 0-60.330666 60.330666C321.706667 382.037333 285.568 469.333333 213.333333 469.333333a42.666667 42.666667 0 1 0 0 85.333334c72.192 0 108.373333 87.296 57.301334 138.368a42.666667 42.666667 0 0 0 60.330666 60.330666C382.037333 702.293333 469.333333 738.432 469.333333 810.666667a42.666667 42.666667 0 1 0 85.333334 0c0-72.192 87.296-108.373333 138.368-57.301334a42.666667 42.666667 0 1 0 60.330666-60.330666C702.293333 641.962667 738.432 554.666667 810.666667 554.666667a42.666667 42.666667 0 1 0 0-85.333334c-72.192 0-108.373333-87.296-57.301334-138.368a42.666667 42.666667 0 0 0-60.330666-60.330666C641.962667 321.706667 554.666667 285.568 554.666667 213.333333a42.666667 42.666667 0 0 0-42.666667-42.666666z m-127.658667 33.152a128 128 0 0 1 255.317334 0 128 128 0 0 1 180.48 180.522666 128 128 0 0 1 0.042666 255.317334 128 128 0 0 1-180.522666 180.48 128 128 0 0 1-255.317334 0 128 128 0 0 1-180.522666-180.48 128 128 0 0 1 0-255.317334 128 128 0 0 1 180.522666-180.522666z" fill="#0D0D0D" p-id="2334"></path><path d="M512 426.666667a85.333333 85.333333 0 1 0 0 170.666666 85.333333 85.333333 0 0 0 0-170.666666z m-120.661333-35.328a170.666667 170.666667 0 1 1 241.322666 241.322666 170.666667 170.666667 0 0 1-241.322666-241.322666z" fill="#0D0D0D" p-id="2335"></path></svg>